<svg width="40" height="40" viewBox="0 0 40 40" fill="none" xmlns="http://www.w3.org/2000/svg">
<path d="M37.075 15.2922C36.9411 14.8686 36.683 14.4951 36.3341 14.2201C35.9853 13.9451 35.5619 13.7813 35.1188 13.75L25.7047 12.9891L22.0766 4.20781C21.9073 3.79621 21.6195 3.4442 21.2498 3.19648C20.8801 2.94876 20.4451 2.8165 20 2.8165C19.555 2.8165 19.12 2.94876 18.7502 3.19648C18.3805 3.4442 18.0927 3.79621 17.9234 4.20781L14.2953 12.9859L4.88126 13.75C4.43778 13.7816 4.01406 13.9458 3.66518 14.2214C3.3163 14.497 3.0584 14.8712 2.92501 15.2953C2.78597 15.7183 2.77528 16.173 2.89429 16.6021C3.0133 17.0311 3.25669 17.4153 3.59376 17.7062L10.7813 23.8953L8.59376 33.1531C8.49111 33.5864 8.51932 34.0403 8.6748 34.4575C8.83028 34.8748 9.10605 35.2365 9.4672 35.4969C9.82388 35.7611 10.2521 35.9115 10.6957 35.9282C11.1393 35.9449 11.5776 35.8273 11.9531 35.5906L20 30.6437L28.0594 35.5984C28.435 35.8351 28.8733 35.9527 29.3169 35.936C29.7604 35.9193 30.1886 35.7689 30.5453 35.5047C30.9065 35.2443 31.1822 34.8826 31.3377 34.4654C31.4932 34.0481 31.5214 33.5942 31.4188 33.1609L29.2313 23.9031L36.4063 17.7062C36.7439 17.4151 36.9877 17.0303 37.1067 16.6006C37.2258 16.1709 37.2147 15.7156 37.075 15.2922ZM35.1781 16.2875L27.5703 22.85C27.4405 22.962 27.3439 23.1075 27.291 23.2706C27.2381 23.4337 27.231 23.6081 27.2703 23.775L29.5953 33.5859C29.6157 33.66 29.6123 33.7386 29.5857 33.8106C29.5591 33.8826 29.5105 33.9445 29.4469 33.9875C29.3892 34.0321 29.3191 34.0575 29.2463 34.0603C29.1734 34.0631 29.1015 34.0431 29.0406 34.0031L20.4906 28.75C20.343 28.6594 20.1732 28.6114 20 28.6114C19.8268 28.6114 19.657 28.6594 19.5094 28.75L10.9594 34.0016C10.8985 34.0416 10.8266 34.0616 10.7538 34.0588C10.6809 34.056 10.6108 34.0305 10.5531 33.9859C10.4881 33.944 10.438 33.8826 10.4099 33.8105C10.3819 33.7384 10.3773 33.6592 10.3969 33.5844L12.7219 23.7734C12.7612 23.6066 12.7541 23.4321 12.7012 23.269C12.6483 23.1059 12.5517 22.9604 12.4219 22.8484L4.81407 16.2859C4.75438 16.2373 4.71133 16.1713 4.69088 16.0971C4.67044 16.0229 4.67363 15.9442 4.70001 15.8719C4.72039 15.8006 4.7625 15.7374 4.82048 15.6912C4.87846 15.645 4.94941 15.618 5.02345 15.6141L15.0109 14.8078C15.183 14.7938 15.3479 14.7326 15.4875 14.6309C15.627 14.5291 15.7357 14.3908 15.8016 14.2312L19.65 4.91875C19.6768 4.84981 19.7239 4.79059 19.7849 4.74883C19.846 4.70707 19.9182 4.68473 19.9922 4.68473C20.0662 4.68473 20.1384 4.70707 20.1995 4.74883C20.2605 4.79059 20.3076 4.84981 20.3344 4.91875L24.1828 14.2312C24.2487 14.3908 24.3574 14.5291 24.4969 14.6309C24.6365 14.7326 24.8013 14.7938 24.9734 14.8078L34.9609 15.6141C35.035 15.618 35.1059 15.645 35.1639 15.6912C35.2219 15.7374 35.264 15.8006 35.2844 15.8719C35.312 15.9436 35.3166 16.0222 35.2976 16.0966C35.2785 16.1711 35.2368 16.2378 35.1781 16.2875Z" fill="black"/>
</svg>
