<svg width="40" height="40" viewBox="0 0 40 40" fill="none" xmlns="http://www.w3.org/2000/svg">
<path d="M36.6077 17.9453L29.5765 24.0125L31.7187 33.0859C31.8368 33.5785 31.8064 34.095 31.6312 34.5703C31.456 35.0456 31.1438 35.4582 30.7342 35.7562C30.3245 36.0541 29.8358 36.224 29.3297 36.2443C28.8235 36.2646 28.3227 36.1345 27.8905 35.8703L19.9999 31.0141L12.1046 35.8703C11.6724 36.133 11.1723 36.2619 10.667 36.2408C10.1617 36.2197 9.67401 36.0496 9.26522 35.752C8.85643 35.4543 8.54487 35.0423 8.36975 34.5679C8.19464 34.0934 8.16381 33.5778 8.28115 33.0859L10.4312 24.0125L3.3999 17.9453C3.01756 17.6149 2.74104 17.1791 2.60488 16.6924C2.46872 16.2057 2.47895 15.6897 2.6343 15.2089C2.78965 14.728 3.08324 14.3035 3.47839 13.9885C3.87354 13.6734 4.35274 13.4818 4.85615 13.4375L14.0749 12.6937L17.6312 4.0875C17.8236 3.61846 18.1513 3.21726 18.5724 2.9349C18.9935 2.65254 19.489 2.50178 19.996 2.50178C20.503 2.50178 20.9985 2.65254 21.4196 2.9349C21.8407 3.21726 22.1683 3.61846 22.3608 4.0875L25.9155 12.6937L35.1343 13.4375C35.6387 13.4802 36.1193 13.6707 36.5159 13.9853C36.9125 14.2999 37.2074 14.7246 37.3637 15.206C37.52 15.6875 37.5308 16.2044 37.3946 16.692C37.2585 17.1795 36.9815 17.616 36.5983 17.9469L36.6077 17.9453Z" fill="#FFDB5C"/>
</svg>
