<svg width="841" height="1051" viewBox="0 0 841 1051" fill="none" xmlns="http://www.w3.org/2000/svg">
<path d="M420.5 630.583C536.407 630.583 630.667 536.324 630.667 420.417C630.667 304.51 536.407 210.25 420.5 210.25C304.593 210.25 210.333 304.51 210.333 420.417C210.333 536.324 304.593 630.583 420.5 630.583ZM420.5 315.333C478.454 315.333 525.584 362.463 525.584 420.417C525.584 478.37 478.454 525.5 420.5 525.5C362.547 525.5 315.417 478.37 315.417 420.417C315.417 362.463 362.547 315.333 420.5 315.333Z" fill="#18236F"/>
<path d="M390.026 1041.14C398.924 1047.48 409.576 1050.88 420.5 1050.88C431.424 1050.88 442.076 1047.48 450.974 1041.14C466.947 1029.85 842.357 758.785 840.833 420.417C840.833 188.655 652.261 0.083252 420.5 0.083252C188.739 0.083252 0.166735 188.655 0.166735 420.154C-1.35697 758.785 374.053 1029.85 390.026 1041.14ZM420.5 105.167C594.36 105.167 735.75 246.556 735.75 420.679C736.853 653.859 505.197 863.238 420.5 931.91C335.855 863.185 104.147 653.754 105.25 420.417C105.25 246.556 246.64 105.167 420.5 105.167Z" fill="#18236F"/>
</svg>
